<svg width="20" height="20" viewBox="0 0 20 20" fill="none" xmlns="http://www.w3.org/2000/svg">
<path d="M17.6562 0.0390625H2.34375C1.05133 0.0390625 0 1.09039 0 2.38281V14.1406C0 15.433 1.05133 16.4844 2.34375 16.4844H7.23633L10.0052 20.0247L12.7284 16.4844H17.6562C18.9487 16.4844 20 15.433 20 14.1406V2.38281C20 1.09039 18.9487 0.0390625 17.6562 0.0390625ZM18.4375 14.1406C18.4375 14.5714 18.087 14.9219 17.6562 14.9219H11.9591L9.99481 17.4753L7.99805 14.9219H2.34375C1.91299 14.9219 1.5625 14.5714 1.5625 14.1406V2.38281C1.5625 1.95206 1.91299 1.60156 2.34375 1.60156H17.6562C18.087 1.60156 18.4375 1.95206 18.4375 2.38281V14.1406ZM9.1806 4.41406C9.1806 3.87466 9.61777 3.4375 10.1572 3.4375C10.6964 3.4375 11.1337 3.87466 11.1337 4.41406C11.1337 4.95346 10.6964 5.39062 10.1572 5.39062C9.61777 5.39062 9.1806 4.95346 9.1806 4.41406ZM11.2199 11.3423L11.9051 12.7466L11.3742 13.0055C11.1096 13.1348 10.8253 13.1984 10.5424 13.1984C10.1462 13.1984 9.75296 13.0736 9.42062 12.8291C8.85117 12.4103 8.56369 11.716 8.67035 11.0173C8.67401 10.9929 8.67889 10.9686 8.685 10.9447L9.30511 8.47794C9.31793 8.32184 9.2276 8.22983 9.17038 8.18771C9.10995 8.14331 8.98483 8.07999 8.82782 8.15674C8.29651 8.41599 8.1871 8.46924 8.1871 8.46924L7.5029 7.06451C7.5032 7.06436 7.61307 7.0108 8.14255 6.75247C8.77808 6.44241 9.52652 6.51016 10.0961 6.92902C10.6656 7.34772 10.9531 8.04199 10.8466 8.74069C10.8427 8.76511 10.8379 8.78937 10.8319 8.81332L10.2118 11.2801C10.199 11.4362 10.2893 11.5282 10.3464 11.5703C10.407 11.6148 10.5319 11.678 10.6891 11.6013L11.2199 11.3423Z" fill="white"/>
</svg>
