<svg width="20" height="18" viewBox="0 0 20 18" fill="none" xmlns="http://www.w3.org/2000/svg">
<path d="M18.125 2.75H4.375C2.99938 2.75 2.5 3.87125 2.5 4.625V15.875C2.5 17.2506 3.62125 17.75 4.375 17.75H18.125C19.5006 17.75 20 16.6287 20 15.875V4.625C20 3.24938 18.8787 2.75 18.125 2.75ZM3.75 4.6325C3.7575 4.34375 3.87188 4 4.375 4H18.1175C18.4062 4.0075 18.75 4.12188 18.75 4.625V9C16.8544 9 15.9262 10.1244 15.1087 11.1163C14.3556 12.0294 13.7606 12.75 12.5 12.75C11.7706 12.75 11.2688 12.3731 10.6875 11.9375C10.0238 11.4394 9.27063 10.875 8.125 10.875C6.97937 10.875 6.22625 11.4394 5.5625 11.9375C4.98125 12.3731 4.47937 12.75 3.75 12.75V4.6325ZM18.75 15.8675C18.7425 16.1563 18.6287 16.5 18.125 16.5H4.3825C4.09375 16.4925 3.75 16.3787 3.75 15.875V14C4.89563 14 5.64875 13.4356 6.3125 12.9375C6.89375 12.5019 7.39563 12.125 8.125 12.125C8.85437 12.125 9.35625 12.5019 9.9375 12.9375C10.6019 13.4356 11.3544 14 12.5 14C14.3494 14 15.265 12.8906 16.0725 11.9113C16.8088 11.0194 17.4431 10.25 18.75 10.25V15.8675ZM15 1.5H1.875C1.37188 1.5 1.2575 1.84375 1.25 2.1325V12.75C1.25 13.0956 0.97 13.375 0.625 13.375C0.28 13.375 0 13.0956 0 12.75V2.125C0 1.37125 0.499375 0.25 1.875 0.25H15C15.3456 0.25 15.625 0.53 15.625 0.875C15.625 1.22 15.3456 1.5 15 1.5ZM8.75 7.125C8.75 6.09125 7.90875 5.25 6.875 5.25C5.84125 5.25 5 6.09125 5 7.125C5 8.15875 5.84125 9 6.875 9C7.90875 9 8.75 8.15875 8.75 7.125ZM6.25 7.125C6.25 6.78062 6.53062 6.5 6.875 6.5C7.21938 6.5 7.5 6.78062 7.5 7.125C7.5 7.46938 7.21938 7.75 6.875 7.75C6.53062 7.75 6.25 7.46938 6.25 7.125Z" fill="#07A148"/>
</svg>
