<svg width="20" height="17" viewBox="0 0 20 17" fill="none" xmlns="http://www.w3.org/2000/svg">
<path d="M13.0573 0.0419922H12.5651C12.3493 0.0419922 12.1745 0.216875 12.1745 0.432617C12.1745 0.648359 12.3493 0.823242 12.5651 0.823242H13.0573C16.4547 0.823242 19.2188 3.58727 19.2188 6.98469C19.2188 9.88437 17.1622 12.4203 14.3286 13.0146C14.1477 13.0525 14.0182 13.2121 14.0182 13.3969V15.6666L11.6122 13.2605C11.5389 13.1873 11.4396 13.1461 11.336 13.1461H6.9427C3.54527 13.1461 0.78125 10.3821 0.78125 6.98469C0.78125 5.93762 1.04855 4.90367 1.5543 3.99453C1.65922 3.80602 1.59137 3.56816 1.40285 3.46328C1.2143 3.35836 0.976445 3.42621 0.871602 3.61473C0.301367 4.63969 0 5.805 0 6.98469C0 10.8129 3.11445 13.9274 6.9427 13.9274H11.1742L14.1326 16.8858C14.2073 16.9605 14.3072 17.0002 14.4089 17.0002C14.4592 17.0002 14.51 16.9905 14.5583 16.9705C14.7043 16.91 14.7995 16.7676 14.7995 16.6096V13.7064C16.2129 13.3402 17.4909 12.5252 18.4247 11.3884C19.4405 10.1518 20 8.58785 20 6.98469C20 3.15648 16.8855 0.0420312 13.0573 0.0419922Z" fill="#07A148"/>
</svg>
