<svg width="20" height="18" viewBox="0 0 20 18" fill="none" xmlns="http://www.w3.org/2000/svg">
<path d="M13.5156 0.960469C12.4851 0.61918 11.0942 0.210938 10 0.210938C8.90578 0.210938 7.5148 0.61918 6.48438 0.960469V3.72656H0V17.7891H20V3.72656H13.5156V0.960469ZM7.65625 1.81582C8.21902 1.65211 9.2575 1.38281 10 1.38281C10.7426 1.38281 11.7811 1.65211 12.3438 1.81582V3.72656H7.65625V1.81582ZM11.7578 13.1004V11.9297H8.24219V13.1004C7.05641 13.0892 5.86977 12.9174 4.72656 12.5977V4.89844H15.3125V12.5868C14.1573 12.9136 12.9571 13.0891 11.7578 13.1004ZM10.5859 13.1016V13.6875C10.5859 14.0106 10.3231 14.2734 10 14.2734C9.67691 14.2734 9.41406 14.0106 9.41406 13.6875V13.1016H10.5859ZM3.55469 4.89844V12.2124C2.72062 11.8958 1.92016 11.498 1.17188 11.025V4.89844H3.55469ZM1.17188 16.6172V12.3906C3.27191 13.5744 5.74801 14.2692 8.34289 14.2732C8.58473 14.9553 9.23605 15.4453 10 15.4453C10.7639 15.4453 11.4153 14.9553 11.6571 14.2732C14.2521 14.2692 16.7282 13.5743 18.8281 12.3906V16.6172H1.17188ZM18.8281 11.025C18.0915 11.4906 17.3044 11.8834 16.4844 12.1976V4.89844H18.8281V11.025Z" fill="#07A148"/>
</svg>
