<svg width="63" height="64" viewBox="0 0 63 64" fill="none" xmlns="http://www.w3.org/2000/svg">
<path d="M55.8365 62.8998C55.4493 62.899 55.0919 62.692 54.8987 62.3565C54.7055 62.021 54.7057 61.608 54.8992 61.2727C55.6022 60.0493 56.2103 58.7739 56.7184 57.4576C58.4742 52.9957 59.6101 48.3141 60.0941 43.5436C60.517 39.5792 60.3929 35.5756 59.7253 31.645C59.2243 28.7326 58.3451 25.898 57.1099 23.2133C56.8574 22.6696 57.0935 22.0242 57.6371 21.7717C58.1808 21.5192 58.8262 21.7552 59.0788 22.2989C60.391 25.1575 61.3248 28.175 61.8568 31.2751C62.5593 35.4008 62.6907 39.6034 62.2473 43.7649C61.7453 48.7307 60.5649 53.6043 58.7392 58.2495C58.1907 59.6696 57.534 61.0455 56.7748 62.365C56.5793 62.6974 56.222 62.901 55.8365 62.8998Z" fill="#F29C1F"/>
<path d="M16.2263 63.9999C15.9916 63.9999 15.7632 63.9238 15.5754 63.7829C3.14532 54.388 -0.75 39.5465 0.899898 29.0038C0.992757 28.4116 1.54811 28.0068 2.1403 28.0997C2.7325 28.1925 3.1373 28.7479 3.04444 29.3401C1.49325 39.2427 5.17054 53.198 16.8804 62.0473C17.2539 62.3275 17.4063 62.8152 17.2586 63.2582C17.111 63.7011 16.6964 63.9999 16.2295 63.9999H16.2263Z" fill="#F29C1F"/>
<path d="M53.6834 57.3513C53.3248 57.3513 52.9893 57.1741 52.7872 56.8778C52.5852 56.5815 52.5426 56.2045 52.6735 55.8707C54.2814 51.7769 55.3237 47.4829 55.7715 43.1075C56.1931 39.2949 56.0373 35.4405 55.3094 31.6743C54.9483 29.8245 54.4122 28.0131 53.7083 26.2647C53.5558 25.9042 53.6092 25.4896 53.8481 25.1796C54.0871 24.8696 54.4745 24.7124 54.8619 24.7682C55.2493 24.824 55.5766 25.0841 55.7184 25.449C56.4738 27.3232 57.0495 29.2649 57.4377 31.248C58.2074 35.2266 58.3734 39.2985 57.9302 43.3267C57.4627 47.898 56.3741 52.3842 54.6944 56.6614C54.5317 57.0777 54.1303 57.3516 53.6834 57.3513Z" fill="#F29C1F"/>
<path d="M17.8293 59.742C17.5793 59.7417 17.3371 59.6551 17.1437 59.4969C8.89367 52.7374 4.36377 42.4473 4.95007 31.7979C4.99231 31.1988 5.5122 30.7474 6.11129 30.7896C6.71038 30.8318 7.1618 31.3517 7.11956 31.9508C6.57616 41.8973 10.8106 51.5061 18.5181 57.8166C18.8723 58.1073 19.0057 58.5894 18.8511 59.0208C18.6966 59.4523 18.2876 59.7401 17.8293 59.7398V59.742Z" fill="#F29C1F"/>
<path d="M30.9218 2.30811V5.93116C30.9218 10.8017 30.5638 14.8152 29.3598 18.1996V18.2105L29.2621 18.3407L12.7523 23.9379C12.4377 18.6552 14.7591 15.5637 17.4059 13.763C19.4235 12.3854 19.9659 9.19624 20.0743 7.50404C20.1611 6.20234 20.0743 4.4559 20.0743 2.30811H30.9218Z" fill="#DF4D60"/>
<path d="M52.9088 19.0023C46.7366 17.0498 43.157 18.102 41.3888 19.1216C41.3828 19.1216 41.378 19.1265 41.378 19.1325C45.0661 18.7528 47.8973 22.1264 49.5027 25.0118C52.4966 30.4138 53.1583 36.7813 52.5509 42.845C52.1267 46.9241 51.1524 50.927 49.6546 54.7447C48.7319 57.5496 46.8946 59.9637 44.437 61.6003C41.4214 63.3576 37.7549 63.1081 34.5007 62.2728C31.7139 61.5171 29.0157 60.4662 26.4519 59.1379C10.7448 51.2952 7.23018 33.5813 12.7515 23.9379C14.255 21.1748 16.734 19.071 19.7048 18.0369C21.5567 17.3785 23.5279 17.1233 25.4865 17.2884C26.7974 17.4113 28.0759 17.7676 29.2614 18.3406L29.359 18.2105V18.1996C31.5936 15.1732 39.4905 6.20232 52.0736 10.3244C53.285 10.7246 54.4636 11.2178 55.599 11.7996L52.9088 19.0023Z" fill="#FF5364"/>
<path d="M56.3689 16.182C55.653 18.1454 54.1452 19.4037 52.9845 19.0241C52.9657 19.0257 52.9469 19.022 52.9302 19.0132C52.9194 19.0132 52.9194 19.0024 52.9085 19.0024C51.7696 18.5576 51.4224 16.6051 52.1601 14.6308C52.8977 12.6349 54.438 11.3657 55.5987 11.7996C56.7594 12.2335 57.1065 14.1969 56.3689 16.182Z" fill="#802D40"/>
<path d="M37.4067 29.0136C36.9229 29.0135 36.4977 28.6932 36.3642 28.2282C36.3425 28.1534 34.1448 20.7012 28.5161 17.972C27.9769 17.7105 27.7518 17.0614 28.0133 16.5222C28.2748 15.983 28.9239 15.7579 29.4631 16.0194C35.9715 19.1782 38.358 27.2878 38.4502 27.6262C38.5434 27.9535 38.4777 28.3055 38.2726 28.5771C38.0676 28.8487 37.747 29.0083 37.4067 29.0082V29.0136Z" fill="#DF4D60"/>
<path d="M14.7006 33.6271H14.6225C14.3355 33.6065 14.0685 33.4728 13.8801 33.2553C13.6917 33.0379 13.5974 32.7545 13.618 32.4675C14.0248 26.7183 16.6857 22.4715 20.7361 21.1189C21.1043 20.996 21.51 21.0789 21.8005 21.3363C22.091 21.5937 22.2221 21.9866 22.1444 22.3668C22.0667 22.7471 21.792 23.057 21.4238 23.1799C18.2336 24.2451 16.1249 27.776 15.7832 32.6248C15.74 33.1906 15.2681 33.6276 14.7006 33.6271Z" fill="white"/>
<path d="M25.497 4.55359C28.4924 4.55359 30.9207 3.54828 30.9207 2.30817C30.9207 1.06805 28.4924 0.0627441 25.497 0.0627441C22.5015 0.0627441 20.0732 1.06805 20.0732 2.30817C20.0732 3.54828 22.5015 4.55359 25.497 4.55359Z" fill="#802D40"/>
</svg>
