<svg width="144" height="144" viewBox="0 0 144 144" fill="none" xmlns="http://www.w3.org/2000/svg">
<path d="M119.305 109.089V138.629C119.305 139.303 119.821 139.864 120.492 139.916C121.541 139.997 122.906 139.805 122.906 139.805C122.906 139.805 123.786 108.431 122.906 108.431C122.024 108.431 119.305 108.431 119.305 108.431V109.089H119.305Z" fill="#5682B7"/>
<path d="M95.8426 96.75C95.8426 96.75 101.985 96.8243 103.08 101.36L98.2756 102.166C98.2756 102.166 97.6043 100.183 93.5195 99.3992L95.8426 96.75Z" fill="#5682B7"/>
<path d="M102.079 107.853C102.079 107.853 105.948 108.198 106.849 113.754L111.129 113.027C111.129 113.027 111.15 105.02 102.538 104.388L102.079 107.853Z" fill="#5682B7"/>
<path d="M108.635 121.324C108.635 121.324 114.698 124.489 115.579 129.629L111.1 130.215C111.1 130.215 110.058 125.832 106.074 124.183L108.635 121.324Z" fill="#5682B7"/>
<path d="M68.5037 66.8397H55.8018V82.3888C55.8018 83.3541 55.0194 84.1365 54.0541 84.1365H41.8508C27.9514 84.1365 16.5115 95.0728 15.8868 108.959L14.6608 136.2C14.547 138.732 16.5693 140.848 19.1047 140.848H66.5017C67.6074 140.848 68.5041 139.951 68.5041 138.846V66.8397H68.5037Z" fill="url(#paint0_linear_4309:22735)"/>
<path d="M55.8027 72.5544C57.721 73.7628 62.2479 76.0817 68.5049 75.8823V66.8397H55.8027V72.5544Z" fill="#D16B69"/>
<path d="M73.0459 68.9191H78.6481V75.0338C78.6481 75.8467 78.1348 76.5741 77.365 76.8358C76.1976 77.2328 74.4474 77.7338 73.0459 77.7338V68.9191Z" fill="#5682B7"/>
<path d="M44.2383 51.6764H45.6241V37.5979H44.2383C40.3505 37.5979 37.1992 40.7495 37.1992 44.637C37.1989 48.5248 40.3505 51.6764 44.2383 51.6764Z" fill="url(#paint1_linear_4309:22735)"/>
<path d="M68.5031 0.716553V71.8478H67.6065C55.117 71.8478 44.9922 61.7233 44.9922 51.0284V21.3783C44.9922 10.1407 53.9962 0.975132 65.232 0.775066L68.5031 0.716553Z" fill="url(#paint2_linear_4309:22735)"/>
<path d="M44.9932 40.565C44.9932 40.565 48.9402 39.5776 48.9402 33.4888V28.4286C48.9402 23.6344 52.8266 19.748 57.6209 19.748C58.4544 19.748 59.2182 20.214 59.5994 20.9554C61.037 23.7507 63.9165 25.5079 67.0597 25.5079H68.504V0.930253C68.504 0.458645 68.128 0.0728786 67.6564 0.0609657L65.2321 0C50.1743 0 40.3006 10.4216 40.3006 24.1908V31.1023C40.301 31.1023 39.7249 40.565 44.9932 40.565Z" fill="#142735"/>
<path d="M68.2629 55.1486H68.5043V42.9708H68.2629C66.0741 42.9708 64.2998 44.7451 64.2998 46.934V51.1855C64.2998 53.3739 66.0741 55.1486 68.2629 55.1486Z" fill="#F76161"/>
<path d="M54.2551 53.4707L53.37 49.6036C53.1128 48.4803 52.3164 47.5567 51.2429 47.1373L50.1886 46.7256C49.786 46.5683 49.587 46.1142 49.7443 45.7116C49.9016 45.3091 50.3557 45.11 50.7583 45.2674L51.8126 45.6794C53.3689 46.2873 54.5234 47.6261 54.8962 49.2547L55.7813 53.1214C55.8776 53.5429 55.6142 53.9627 55.193 54.0594H55.1927C54.7715 54.1557 54.3518 53.8923 54.2551 53.4707Z" fill="#D16B69"/>
<path d="M62.5467 98.5074C62.4962 98.5074 62.4458 98.5053 62.395 98.5011C57.503 98.0974 53.1191 95.3518 51.4871 94.211C51.1171 93.9524 51.0407 93.4384 51.3192 93.0831C51.5754 92.7565 52.0389 92.684 52.3798 92.9205C53.8854 93.9643 58.0461 96.5715 62.5239 96.9408C62.6469 96.9527 62.7285 96.87 62.7489 96.8445C62.8088 96.7691 62.7892 96.7068 62.7829 96.6868C62.7321 96.526 62.622 96.2894 62.3869 95.9755C62.1483 95.6574 62.1771 95.2106 62.464 94.9352C62.8088 94.6037 63.361 94.6637 63.6465 95.0473C63.9468 95.4503 64.1574 95.8413 64.2755 96.2148C64.4496 96.7649 64.3357 97.3655 63.9724 97.8213C63.6241 98.2576 63.0992 98.5074 62.5467 98.5074Z" fill="#D16B69"/>
<path d="M54.4966 129.743C36.9655 129.743 31.5613 122.527 30.2113 120.015C29.9821 119.588 30.1836 119.059 30.6412 118.9L31.3072 118.668L30.5683 118.925L30.6503 118.896C31.008 118.769 31.4057 118.915 31.591 119.246C32.8881 121.565 39.1536 129.913 61.2957 127.843C61.7242 127.802 62.1086 128.112 62.1527 128.539C62.1972 128.971 61.878 129.36 61.4453 129.401C58.9405 129.636 56.6283 129.743 54.4966 129.743Z" fill="#D16B69"/>
<path d="M56.3488 38.4419C57.5414 38.4419 58.5082 37.4752 58.5082 36.2826C58.5082 35.09 57.5414 34.1232 56.3488 34.1232C55.1562 34.1232 54.1895 35.09 54.1895 36.2826C54.1895 37.4752 55.1562 38.4419 56.3488 38.4419Z" fill="#4A3B49"/>
<path d="M73.0476 3.39769C73.0476 2.52595 73.8562 1.87915 74.7052 2.07676C79.7475 3.25018 94.6365 8.1898 95.9195 25.7718C95.9195 25.7718 96.9125 39.3604 88.7025 50.0147C87.8798 51.082 87.1955 52.2512 86.7467 53.5217C86.6591 53.7704 86.5729 54.0252 86.4902 54.283C85.8952 56.1344 84.2295 57.475 82.2863 57.5524C82.2555 57.5535 82.224 57.5545 82.1924 57.5556C81.3848 57.5759 80.7258 56.906 80.7258 56.0983V54.974C80.7258 54.4799 80.3249 54.0795 79.8309 54.0795H77.5261C77.0321 54.0795 76.6312 54.4799 76.6312 54.974V56.3124C76.6312 57.0002 76.0738 57.558 75.386 57.558H73.7403C73.3573 57.558 73.0469 57.2476 73.0469 56.8646V3.39769H73.0476Z" fill="#C5DFFF"/>
<path d="M84.5021 41.8325C88.4593 41.8325 91.6673 38.6245 91.6673 34.6673C91.6673 30.7101 88.4593 27.5021 84.5021 27.5021C80.5449 27.5021 77.3369 30.7101 77.3369 34.6673C77.3369 38.6245 80.5449 41.8325 84.5021 41.8325Z" fill="#5682B7"/>
<path d="M73.0463 42.9711H75.0697C76.8682 42.9711 77.9274 44.9903 76.905 46.47L73.0459 52.0564V42.9711H73.0463Z" fill="#5682B7"/>
<path d="M73.7393 60.4784H75.4113C76.0984 60.4784 76.6551 61.0351 76.6551 61.7219V63.7589C76.6551 64.2207 77.0293 64.5953 77.4915 64.5953H79.8929C80.3547 64.5953 80.7293 64.2207 80.7293 63.7589V62.3865C80.7293 61.3326 81.5838 60.478 82.6378 60.478H83.9776C84.6892 60.478 85.2449 61.0912 85.1703 61.7993C84.8549 64.7954 83.0495 71.8477 73.0459 71.8477V61.1714C73.0459 60.7888 73.3563 60.4784 73.7393 60.4784Z" fill="#C5DFFF"/>
<path d="M73.6286 80.0254C74.6009 79.9322 76.6964 79.6183 79.1894 78.5563C79.8456 78.2767 80.5979 78.6523 80.786 79.3404L80.9668 80.004C81.1241 80.5807 80.8287 81.1809 80.2776 81.4122C79.1389 81.8897 76.9778 82.648 73.7918 83.1592C73.4019 83.2215 73.0459 82.923 73.0459 82.5281V80.662C73.0459 80.3306 73.2989 80.0566 73.6286 80.0254Z" fill="url(#paint3_linear_4309:22735)"/>
<path d="M73.686 85.5851C75.5321 85.5851 77.0283 87.0815 77.0283 88.9273V131.399C77.0283 133.245 75.5318 134.741 73.686 134.741C73.3328 134.741 73.0469 134.455 73.0469 134.102V86.2242C73.0465 85.8713 73.3328 85.5851 73.686 85.5851Z" fill="url(#paint4_linear_4309:22735)"/>
<path d="M119.347 87.9625C119.168 86.9916 118.186 86.3872 117.21 86.5323C106.904 88.0645 96.6857 87.4874 90.7447 86.8869C89.1245 86.7233 87.53 86.2555 86.1712 85.3582C85.3625 84.8245 84.3464 84.5793 83.269 84.7716C81.6997 85.0519 80.4243 86.3024 80.1202 87.8676C79.6282 90.3998 81.5539 92.6159 83.9974 92.6159C85.6705 92.6159 87.0976 91.5753 87.6754 90.1076C98.8804 91.9895 112.884 90.6513 117.791 90.0753C118.818 89.9548 119.536 88.9934 119.347 87.9625Z" fill="url(#paint5_linear_4309:22735)"/>
<path d="M129.343 100.685C129.343 95.8361 125.3 91.9311 120.402 92.1564C116.053 92.3564 112.476 95.9342 112.276 100.282C112.051 105.181 115.956 109.224 120.805 109.224C120.934 109.224 121.062 109.22 121.19 109.214C121.757 109.184 122.228 109.648 122.228 110.216V139.818C122.228 140.387 122.689 140.848 123.258 140.848H127.772C128.34 140.848 128.801 140.387 128.801 139.818V105.948C128.801 104.693 128.972 103.449 129.202 102.216C129.294 101.72 129.343 101.209 129.343 100.685Z" fill="url(#paint6_linear_4309:22735)"/>
<path d="M81.9012 98.8037C82.4769 98.8471 83.123 98.878 83.8038 98.8773C86.3693 98.8748 88.85 97.8349 90.5847 95.9456C90.8566 95.6492 91.1215 95.3311 91.3664 94.9929C92.1635 93.8931 93.688 93.6265 94.797 94.4106C95.8713 95.1709 96.167 96.6422 95.4547 97.7494C94.5486 99.159 93.0069 100.995 90.5801 102.331C89.6583 102.839 88.6485 103.163 87.6086 103.324C86.1986 103.542 83.8984 103.804 81.6118 103.658C80.4247 103.582 79.4951 102.606 79.4951 101.417V101.039C79.4948 99.7353 80.6009 98.7052 81.9012 98.8037Z" fill="url(#paint7_linear_4309:22735)"/>
<path d="M80.6886 109.192C81.3733 108.019 82.9209 107.671 84.0253 108.461C86.2081 110.024 89.9407 112.034 93.8457 111.159C98.5194 110.112 98.6889 105.177 98.2759 102.166C98.1105 100.962 98.8575 99.8227 100.027 99.492C101.396 99.1052 102.794 99.9678 103.081 101.361C103.729 104.51 104.042 109.923 99.9132 113.6C97.8113 115.472 95.0194 116.373 92.2059 116.302C89.3023 116.23 85.0887 115.435 81.1848 112.131C80.3277 111.406 80.1231 110.162 80.6886 109.192Z" fill="url(#paint8_linear_4309:22735)"/>
<path d="M81.208 119.435C81.8012 118.606 82.9074 118.339 83.8201 118.793C86.6813 120.217 93.2222 122.822 100.965 121.627C102.3 121.421 103.591 120.921 104.632 120.06C106.117 118.833 107.542 116.617 106.678 112.798C106.465 111.859 106.909 110.893 107.74 110.408C109.104 109.612 110.833 110.439 111.083 111.998C111.614 115.311 111.632 120.55 107.607 124.002C105.789 125.56 103.471 126.409 101.084 126.588C97.1979 126.878 89.1904 126.792 81.8387 122.416C80.7977 121.796 80.5031 120.42 81.208 119.435Z" fill="url(#paint9_linear_4309:22735)"/>
<path d="M81.3278 129.832C81.8509 128.971 82.8838 128.572 83.8519 128.851C86.437 129.598 91.5466 131.509 95.8446 135.765C95.8446 135.765 101.595 141.171 107.357 138.183C111.248 136.165 111.409 132.428 111.103 130.215C110.956 129.148 111.609 128.134 112.629 127.794C113.971 127.347 115.385 128.227 115.581 129.628C115.932 132.124 115.867 136.002 113.217 139.43C111.049 142.234 107.678 143.832 104.137 143.984C101.028 144.118 96.8642 143.42 92.9877 139.935C92.9877 139.935 87.7236 135 82.4819 133.077C81.1599 132.593 80.5969 131.036 81.3278 129.832Z" fill="url(#paint10_linear_4309:22735)"/>
<defs>
<linearGradient id="paint0_linear_4309:22735" x1="41.5803" y1="108.114" x2="41.5803" y2="211.773" gradientUnits="userSpaceOnUse">
<stop stop-color="#FFC2BA"/>
<stop offset="1" stop-color="#F97D7A"/>
</linearGradient>
<linearGradient id="paint1_linear_4309:22735" x1="40.684" y1="46.28" x2="60.3683" y2="36.9074" gradientUnits="userSpaceOnUse">
<stop stop-color="#FFC2BA"/>
<stop offset="0.364" stop-color="#FDA9A3"/>
<stop offset="1" stop-color="#F97D7A"/>
</linearGradient>
<linearGradient id="paint2_linear_4309:22735" x1="56.7478" y1="63.6192" x2="56.7478" y2="-21.969" gradientUnits="userSpaceOnUse">
<stop stop-color="#FFC2BA"/>
<stop offset="1" stop-color="#F97D7A"/>
</linearGradient>
<linearGradient id="paint3_linear_4309:22735" x1="73.046" y1="80.8153" x2="81.0091" y2="80.8153" gradientUnits="userSpaceOnUse">
<stop stop-color="#C5DFFF"/>
<stop offset="1" stop-color="#E1F4FF"/>
</linearGradient>
<linearGradient id="paint4_linear_4309:22735" x1="84.5762" y1="99.4218" x2="-6.1679" y2="193.926" gradientUnits="userSpaceOnUse">
<stop stop-color="#C5DFFF"/>
<stop offset="1" stop-color="#E1F4FF"/>
</linearGradient>
<linearGradient id="paint5_linear_4309:22735" x1="82.8617" y1="88.6612" x2="150.481" y2="88.6612" gradientUnits="userSpaceOnUse">
<stop stop-color="#C5DFFF"/>
<stop offset="1" stop-color="#E1F4FF"/>
</linearGradient>
<linearGradient id="paint6_linear_4309:22735" x1="102.143" y1="133.973" x2="11.3983" y2="210.232" gradientUnits="userSpaceOnUse">
<stop stop-color="#C5DFFF"/>
<stop offset="1" stop-color="#E1F4FF"/>
</linearGradient>
<linearGradient id="paint7_linear_4309:22735" x1="83.1134" y1="102.844" x2="118.316" y2="74.3094" gradientUnits="userSpaceOnUse">
<stop stop-color="#C5DFFF"/>
<stop offset="1" stop-color="#E1F4FF"/>
</linearGradient>
<linearGradient id="paint8_linear_4309:22735" x1="85.0186" y1="114.62" x2="117.846" y2="94.1365" gradientUnits="userSpaceOnUse">
<stop stop-color="#C5DFFF"/>
<stop offset="1" stop-color="#E1F4FF"/>
</linearGradient>
<linearGradient id="paint9_linear_4309:22735" x1="84.5194" y1="125.613" x2="128.66" y2="108.865" gradientUnits="userSpaceOnUse">
<stop stop-color="#C5DFFF"/>
<stop offset="1" stop-color="#E1F4FF"/>
</linearGradient>
<linearGradient id="paint10_linear_4309:22735" x1="85.8443" y1="138.375" x2="137.665" y2="125.765" gradientUnits="userSpaceOnUse">
<stop stop-color="#C5DFFF"/>
<stop offset="1" stop-color="#E1F4FF"/>
</linearGradient>
</defs>
</svg>
