<svg width="64" height="64" viewBox="0 0 64 64" fill="none" xmlns="http://www.w3.org/2000/svg">
<g clip-path="url(#clip0_4307:22717)">
<path fill-rule="evenodd" clip-rule="evenodd" d="M50.0424 41.1181C52.5018 35.6752 52.8446 26.4546 50.2103 21.5996C49.6674 20.5991 48.3553 19.7378 47.8524 21.2383C47.4335 22.4829 47.2113 23.5307 46.9745 24.0307C45.557 26.9912 41.2978 27.0273 41.1811 21.2783C40.8715 6.05618 30.6655 -0.0180262 24.9999 4.01712e-05C20.0151 0.0146886 32.4657 8.91408 24.5263 21.7637C23.3237 23.7129 21.768 22.5083 20.1318 21.0517C18.1972 19.3286 14.459 18.3652 12.2763 19.9565C11.289 20.2012 12.7207 21.5918 13.3218 22.8149C16.2221 28.7031 16.4262 28.6665 14.3169 33.6494C13.2309 36.2119 13.5332 39.0703 14.1675 41.1982L31.9994 50.8534L50.0424 41.1181Z" fill="#F78411"/>
<path fill-rule="evenodd" clip-rule="evenodd" d="M14.6404 59.6692C14.3748 57.5188 12.6765 55.9676 10.8513 56.201C10.6546 56.2268 10.4612 56.2708 10.2791 56.3362C8.77419 56.8548 7.79763 58.596 8.03835 60.5086C8.30446 62.659 10.0022 64.2103 11.824 63.9764C11.9553 63.9622 12.0789 63.9363 12.2029 63.9036L12.7571 63.6917C14.0579 63.035 14.8592 61.4251 14.6404 59.6692Z" fill="#FCC368"/>
<path fill-rule="evenodd" clip-rule="evenodd" d="M31.999 56.3403L30.2212 52.1826H21.1265L10.2793 56.3364C10.4614 56.271 10.6548 56.2271 10.8516 56.2012C12.6768 55.9678 14.375 57.519 14.6406 59.6694C14.8594 61.4253 14.0576 63.0352 12.7573 63.6919L31.999 56.3403Z" fill="#B5722F"/>
<path fill-rule="evenodd" clip-rule="evenodd" d="M39.8844 45.0059C42.6935 36.7813 40.296 30.1558 35.3878 26.3301C33.0851 24.5342 29.6783 24.5601 31.42 28.0532C33.0123 31.2402 32.2364 35.6826 31.3981 38.0811C30.651 40.2202 28.3668 41.3189 26.6105 38.5371C26.0494 37.6426 25.4083 35.4087 24.0817 35.0801C22.1871 34.6133 21.1232 40.1143 22.7042 44.4653L31.9991 50.8535L39.8844 45.0059Z" fill="#FCC368"/>
<path fill-rule="evenodd" clip-rule="evenodd" d="M50.0425 41.1183C52.502 35.6754 52.8447 26.4547 50.2104 21.5998C49.6675 20.5993 48.3555 19.7379 47.8525 21.2384C47.4336 22.4831 47.2114 23.5309 46.9746 24.0309C46.8979 24.1842 46.8179 24.3337 46.7305 24.4689C48.6909 29.5392 48.2173 37.694 45.9619 42.6803L50.0425 41.1183Z" fill="#F74311"/>
<path fill-rule="evenodd" clip-rule="evenodd" d="M31.9985 56.3401L30.1147 54.825L27.0142 54.4343L14.564 59.22C14.5967 59.366 14.6221 59.5159 14.6401 59.6692C14.8589 61.425 14.0571 63.0349 12.7568 63.6917L31.9985 56.3401Z" fill="#91561A"/>
<path fill-rule="evenodd" clip-rule="evenodd" d="M53.7221 56.333L42.8749 52.1827L31.9984 48.0249L13.0736 40.7823C8.40958 38.9971 5.95743 46.3892 10.1552 47.9917L21.1259 52.1827L31.9984 56.3404L51.2406 63.6919C49.9438 63.0352 49.1386 61.4253 49.3608 59.6695C49.6269 57.5191 51.3246 55.9678 53.1464 56.2012C53.3466 56.2271 53.536 56.271 53.7221 56.333Z" fill="#B5722F"/>
<path fill-rule="evenodd" clip-rule="evenodd" d="M55.9632 60.5087C56.2039 58.5961 55.2273 56.8549 53.7224 56.3363V56.3329C53.5364 56.2709 53.3469 56.2269 53.1468 56.2015C51.325 55.9677 49.6267 57.5194 49.3611 59.6693C49.1384 61.4252 49.9436 63.035 51.241 63.6922L51.7986 63.9037C51.9187 63.9369 52.0462 63.9623 52.1775 63.9769C53.9993 64.2103 55.697 62.6586 55.9632 60.5087Z" fill="#FCC368"/>
<path fill-rule="evenodd" clip-rule="evenodd" d="M49.4514 59.1548L8.35861 42.9434C7.59347 44.7979 7.99044 47.1631 10.155 47.9917L21.1257 52.1826C31.1643 56.019 41.2024 59.8555 51.2404 63.6919C49.9436 63.0352 49.1384 61.4253 49.3606 59.6694C49.3825 59.4941 49.4113 59.3228 49.4514 59.1548Z" fill="#91561A"/>
<path fill-rule="evenodd" clip-rule="evenodd" d="M53.8467 47.9917C58.0439 46.3892 55.5879 38.9971 50.9243 40.7823L31.999 48.0245L34.5278 53.3179L42.8755 52.1827L53.8467 47.9917Z" fill="#B5722F"/>
<path fill-rule="evenodd" clip-rule="evenodd" d="M53.8467 47.9917C55.8506 47.2251 56.3389 45.1406 55.792 43.3667L37.8545 50.2622L42.8755 52.1826L53.8467 47.9917Z" fill="#91561A"/>
</g>
<defs>
<clipPath id="clip0_4307:22717">
<rect width="64" height="64" fill="white"/>
</clipPath>
</defs>
</svg>
