<svg width="64" height="64" viewBox="0 0 64 64" fill="none" xmlns="http://www.w3.org/2000/svg">
<path d="M54.1975 41.8812H9.8023C6.57128 41.8812 3.95215 39.262 3.95215 36.0311C3.95215 32.8 6.57141 30.1809 9.8023 30.1809H54.1975C57.4285 30.1809 60.0476 32.8002 60.0476 36.0311C60.0476 39.262 57.4284 41.8812 54.1975 41.8812Z" fill="#EAAC9D"/>
<path d="M31.9995 63.9985C21.3791 63.9985 12.7695 55.389 12.7695 44.7686V26.5508C12.7695 15.9303 21.3791 7.3208 31.9995 7.3208C42.6199 7.3208 51.2294 15.9303 51.2294 26.5508V44.7687C51.2294 55.389 42.6199 63.9985 31.9995 63.9985Z" fill="#FFDDCE"/>
<path d="M36.9354 63.3606C35.3604 63.7791 33.7092 63.9998 32.001 63.9998C21.3789 63.9998 12.7695 55.3903 12.7695 44.7684V26.5529C12.7695 15.9309 21.3789 7.32153 32.001 7.32153C33.7091 7.32153 35.3602 7.54216 36.9354 7.96066C28.7026 10.1405 22.6383 17.6391 22.6383 26.5529V44.7686C22.6383 53.6822 28.7026 61.1807 36.9354 63.3606Z" fill="#FFCBBE"/>
<path d="M39.1569 46.9286C38.9098 46.9286 38.6626 46.8342 38.4739 46.6457C36.7491 44.9208 34.4558 43.9685 32.0166 43.9642H24.6552C24.1217 43.9642 23.6895 43.5318 23.6895 42.9985C23.6895 42.4651 24.1218 42.0327 24.6552 42.0327H32.0182C34.9738 42.0378 37.7509 43.1911 39.8398 45.28C40.2169 45.6571 40.2169 46.2686 39.8398 46.6458C39.6513 46.8343 39.4041 46.9286 39.1569 46.9286Z" fill="#D87B7B"/>
<path d="M26.9824 34.4248C26.4489 34.4248 26.0166 33.9925 26.0166 33.4591V28.9306C26.0166 28.3972 26.449 27.9648 26.9824 27.9648C27.5159 27.9648 27.9481 28.3972 27.9481 28.9306V33.4591C27.9481 33.9925 27.5157 34.4248 26.9824 34.4248Z" fill="#545058"/>
<path d="M40.5837 36.9125C40.3931 36.9125 40.2006 36.8562 40.0322 36.7389L36.4652 34.2516C36.0277 33.9465 35.9204 33.3445 36.2254 32.907C36.5304 32.4695 37.1322 32.3619 37.5701 32.6671L41.1371 35.1544C41.5746 35.4595 41.682 36.0615 41.377 36.499C41.1891 36.7682 40.8889 36.9125 40.5837 36.9125Z" fill="#545058"/>
<path d="M15.5192 3.54639H17.2087C22.3328 3.54639 26.4867 7.70026 26.4867 12.8244V12.8956C26.4867 18.0198 22.3328 22.1736 17.2087 22.1736H15.5192C10.3951 22.1736 6.24121 18.0198 6.24121 12.8956V12.8244C6.24121 7.70039 10.3951 3.54639 15.5192 3.54639Z" fill="#655E66"/>
<path d="M19.6866 21.8345C18.8973 22.0567 18.0663 22.1727 17.2095 22.1727H15.5216C10.3966 22.1727 6.24121 18.0206 6.24121 12.8956V12.8247C6.24121 7.69973 10.3966 3.54761 15.5216 3.54761H17.2095C18.0663 3.54761 18.8973 3.66361 19.6866 3.88586C15.7631 4.96498 12.8833 8.55661 12.8833 12.8247V12.8956C12.8833 17.1636 15.7632 20.7554 19.6866 21.8345Z" fill="#545058"/>
<path d="M24.8761 10.1228C24.8761 17.4883 30.847 23.4592 38.2126 23.4592C50.1925 23.4592 59.9043 13.7476 59.9043 1.76751V0H34.5133C28.9983 0 24.6053 4.61439 24.8761 10.1228Z" fill="#655E66"/>
<path d="M42.5424 23.0271C41.1444 23.3106 39.6948 23.4587 38.213 23.4587C30.846 23.4587 24.8771 17.4897 24.8771 10.1228C24.6065 4.61458 29.0002 0.00170898 34.515 0.00170898H42.2266C36.7119 0.00170898 32.3181 4.61446 32.5887 10.1228C32.5887 16.3205 36.815 21.5292 42.5424 23.0271Z" fill="#545058"/>
<path d="M38.1366 52.7102C37.6031 52.7102 37.1709 52.2778 37.1709 51.7444C37.1709 51.211 37.6033 50.7787 38.1366 50.7787C40.7681 50.7787 42.909 48.6378 42.909 46.0063C42.909 45.4729 43.3414 45.0405 43.8748 45.0405C44.4081 45.0405 44.8405 45.4729 44.8405 46.0063C44.8406 49.7028 41.8331 52.7102 38.1366 52.7102Z" fill="#EAAC9D"/>
<path d="M39.8896 56.563C39.3561 56.563 38.9238 56.1306 38.9238 55.5972C38.9238 55.0638 39.3562 54.6315 39.8896 54.6315C43.5241 54.6315 46.4811 51.6746 46.4811 48.04C46.4811 47.5066 46.9135 47.0742 47.4468 47.0742C47.9802 47.0742 48.4126 47.5066 48.4126 48.04C48.4127 52.7395 44.5893 56.563 39.8896 56.563Z" fill="#EAAC9D"/>
</svg>
