<svg width="64" height="58" viewBox="0 0 64 58" fill="none" xmlns="http://www.w3.org/2000/svg">
<path d="M31.067 56.0995C31.6839 56.5182 32.4803 56.7518 33.1128 56.3571C40.3172 51.8614 51.7412 42.7521 51.7412 42.7521C51.7007 42.7427 11.3679 23.7567 1.9502 19.3235C1.95032 31.5548 11.0006 42.4821 31.067 56.0995Z" fill="#FFCBCE"/>
<path d="M33.1125 55.0693C32.4799 55.464 31.6835 55.2304 31.0667 54.8117C11.0003 41.1943 2.37882 30.9202 1.95 19.3234C0.70503 18.7374 0 18.4055 0 18.4055C0 31.1137 9.06237 42.7526 30.9146 57.5819C31.5691 58.0261 32.4307 58.0261 33.0854 57.5819C40.8722 52.2977 47.0336 47.4188 51.7408 42.752C51.7408 42.752 40.3169 50.5736 33.1125 55.0693Z" fill="#FFB3B7"/>
<path d="M45.6796 0.0847168C40.2404 0.0847168 35.3558 2.45581 32.0004 6.21983C28.6449 2.45581 23.7603 0.0847168 18.3211 0.0847168C13.0567 0.0847168 8.31173 2.30592 4.96995 5.8612C2.21576 9.66798 1.28809 13.0887 1.28809 18.4056C1.28809 24.8598 6.63189 30.844 13.3952 32.4685C19.3228 33.8922 41.1539 38.3559 53.2719 41.188C60.6967 33.3588 64.0004 26.077 64.0004 18.4056C64.0004 8.28728 55.7978 0.0847168 45.6796 0.0847168Z" fill="#FF9A9F"/>
<path d="M1.93159 18.4056C1.93159 13.0887 3.41286 8.8495 4.96959 5.86133C1.88845 9.13936 0 13.5516 0 18.4056C0 25.6156 4.91461 31.7193 13.3948 33.7562C21.7304 35.7583 31.3946 37.0798 31.3946 37.0798L48.0599 41.8953C48.0599 41.8953 51.7394 42.7519 51.741 42.7522C52.2695 42.2283 52.7795 41.707 53.2717 41.188C41.1537 38.3559 19.3226 33.2483 13.3949 31.8246C6.63153 30.2001 1.93159 24.8598 1.93159 18.4056Z" fill="#FF8086"/>
<path d="M50.0608 38.2925C50.0608 36.4374 48.8697 34.8614 47.211 34.2849L47.9003 32.4796C48.183 31.388 48.218 30.3332 48.071 29.3538L47.5323 27.4568C47.2432 26.7791 46.8685 26.1647 46.4406 25.6325C47.3815 23.1642 45.9964 21.5572 43.5777 21.5986C41.9397 16.3016 37.6439 11.9711 31.8675 10.5525C27.1758 9.4002 22.46 10.4035 18.7615 12.9293C15.936 15.3758 14.1922 17.7669 13.4059 20.9685C12.4393 24.9039 13.2917 30.6947 14.9846 34.0495L42.4923 40.5786L49.5472 40.3174C49.8748 39.7156 50.0608 39.0258 50.0608 38.2925Z" fill="#FFCDBE"/>
<path d="M41.578 38.4436C41.5762 38.3932 41.5741 38.343 41.5741 38.2921C41.5741 35.9487 43.4738 34.0491 45.8172 34.0491C46.3055 34.0491 46.774 34.1326 47.2105 34.2843C47.5209 33.6758 47.7463 33.0722 47.8998 32.4793C47.2489 32.2452 46.5477 32.1175 45.8172 32.1175C42.5137 32.1175 39.8082 34.7253 39.6501 37.9903L32.4093 36.288C32.6408 35.9231 32.8179 35.5217 32.9314 35.0929C33.0713 34.5651 32.7845 33.9896 32.256 33.852C31.7335 33.7161 31.2032 34.0341 31.075 34.5564C30.9034 35.255 30.4296 35.8282 29.7599 36.1311C29.2053 36.3819 28.5731 36.3838 27.9958 36.1907C26.4114 35.6608 25.4698 33.9891 25.8752 32.3385C26.1819 31.0895 27.4477 30.3228 28.6966 30.6296C29.2196 30.7578 29.748 30.4338 29.8686 29.9066C29.9899 29.3762 29.6146 28.857 29.084 28.7364C26.8249 28.2233 24.5543 29.6189 23.9994 31.8777C23.7964 32.7042 23.8062 33.5336 23.9919 34.3092L15.7734 32.3771C15.4847 32.3092 15.2434 32.1125 15.1175 31.844C13.5889 28.5787 13.1231 24.7375 14.049 20.9681C14.8353 17.7666 16.5168 15.0206 18.7608 12.929C15.5565 15.1173 13.1158 18.4484 12.1174 22.5134C11.1508 26.4488 11.7011 30.4012 13.3941 33.7559L48.0591 41.8949C48.681 41.5071 49.1952 40.9626 49.5466 40.3168L41.578 38.4436Z" fill="#EBAE9D"/>
<path d="M47.1659 27.7102C46.6437 27.9962 44.8661 28.6331 43.2686 28.2741C42.7481 28.1568 42.2314 28.4841 42.1145 29.0046C41.9976 29.525 42.3247 30.0418 42.845 30.1587C43.3361 30.269 43.8591 30.3213 44.3858 30.3213C45.7625 30.3213 47.1607 29.9632 48.0703 29.3538C47.9693 28.6819 47.7826 28.0456 47.5313 27.457C47.3911 27.5657 47.2616 27.6578 47.1659 27.7102Z" fill="#EBAE9D"/>
<path d="M37.404 26.9185C36.9525 26.9185 36.4943 26.8241 36.0577 26.6244C35.5725 26.4026 35.3591 25.8296 35.5808 25.3445C35.8027 24.8594 36.3756 24.6459 36.8607 24.8678C37.5218 25.1697 38.3055 24.8782 38.6075 24.2171C38.8294 23.732 39.402 23.5184 39.8875 23.7404C40.3726 23.9622 40.586 24.5352 40.3641 25.0202C39.8189 26.2132 38.6373 26.9185 37.404 26.9185Z" fill="#C38778"/>
</svg>
