<svg width="64" height="64" viewBox="0 0 64 64" fill="none" xmlns="http://www.w3.org/2000/svg">
<g clip-path="url(#clip0_4307:22634)">
<path d="M60.1913 10.1628V25.244C60.1913 38.8671 53.1282 51.5066 41.7583 58.2303L32 64L22.2417 58.2301C10.8717 51.5066 3.80859 38.8671 3.80859 25.244V10.1628L5.60872 10.0941C10.0553 9.92188 13.5818 6.30037 13.6368 1.84888L13.6606 0H50.3393L50.3631 1.84875C50.418 6.30037 53.9446 9.92175 58.3912 10.094L60.1913 10.1628Z" fill="#7CD194"/>
<path d="M60.1914 10.1628V25.244C60.1914 38.8671 53.1282 51.5066 41.7584 58.2303L32 64V0H50.3394L50.3631 1.84875C50.418 6.30037 53.9446 9.92175 58.3913 10.094L60.1914 10.1628Z" fill="#50AE4E"/>
<path d="M44.0149 41.3841C50.6542 34.7448 50.6542 23.9803 44.0149 17.341C37.3756 10.7017 26.6111 10.7017 19.9718 17.341C13.3324 23.9803 13.3324 34.7448 19.9718 41.3841C26.6111 48.0234 37.3756 48.0234 44.0149 41.3841Z" fill="#FF4945"/>
<path d="M49.0036 29.3623C49.0036 38.7385 41.3763 46.3659 32 46.3659V12.3586C41.3763 12.3586 49.0036 19.986 49.0036 29.3623Z" fill="#FF155D"/>
<path d="M40.2541 27.4899V31.2349H33.8726V37.6164H30.1276V31.2349H23.7461V27.4899H30.1276V21.1084H33.8726V27.4899H40.2541Z" fill="white"/>
<path d="M40.254 27.4899V31.2349H33.8725V37.6164H32V21.1084H33.8725V27.4899H40.254Z" fill="#EBDFD9"/>
</g>
<defs>
<clipPath id="clip0_4307:22634">
<rect width="64" height="64" fill="white"/>
</clipPath>
</defs>
</svg>
