<svg width="64" height="64" viewBox="0 0 64 64" fill="none" xmlns="http://www.w3.org/2000/svg">
<path d="M57.12 21.8799C56.8419 21.601 56.5115 21.3796 56.1477 21.2286C55.7839 21.0776 55.3939 20.9999 55 20.9999H29L35.93 16.9999C36.5036 16.6697 36.952 16.1591 37.2052 15.5476C37.4584 14.936 37.5023 14.2579 37.3299 13.6189C37.1576 12.9798 36.7788 12.4157 36.2525 12.0143C35.7262 11.613 35.0819 11.397 34.42 11.3999C33.8968 11.4 33.3829 11.5379 32.93 11.7999L13.54 22.9999H2V42.9999H14L19 44.9999H33C32.2044 44.9999 31.4413 44.6839 30.8787 44.1213C30.3161 43.5586 30 42.7956 30 41.9999C30 41.2043 30.3161 40.4412 30.8787 39.8786C31.4413 39.316 32.2044 38.9999 33 38.9999H34C33.2044 38.9999 32.4413 38.6839 31.8787 38.1213C31.3161 37.5586 31 36.7956 31 35.9999C31 35.2043 31.3161 34.4412 31.8787 33.8786C32.4413 33.316 33.2044 32.9999 34 32.9999C33.2044 32.9999 32.4413 32.6839 31.8787 32.1213C31.3161 31.5586 31 30.7956 31 29.9999C31 29.2043 31.3161 28.4412 31.8787 27.8786C32.4413 27.316 33.2044 26.9999 34 26.9999H55C55.3416 27.0021 55.6806 26.941 56 26.8199C56.4777 26.6523 56.905 26.3662 57.2419 25.9884C57.5787 25.6105 57.8142 25.1533 57.9261 24.6597C58.038 24.166 58.0228 23.6519 57.8818 23.1658C57.7408 22.6796 57.4787 22.2371 57.12 21.8799Z" fill="#FFC477"/>
<path d="M61 39V51C60.9984 51.5299 60.7872 52.0377 60.4125 52.4125C60.0377 52.7872 59.5299 52.9984 59 53H49C48.4701 52.9984 47.9623 52.7872 47.5875 52.4125C47.2128 52.0377 47.0016 51.5299 47 51V39C47 37.9391 47.4214 36.9217 48.1716 36.1716C48.9217 35.4214 49.9391 35 51 35H57C58.0609 35 59.0783 35.4214 59.8284 36.1716C60.5786 36.9217 61 37.9391 61 39Z" fill="#5AAAE7"/>
<path d="M51 39H57V43H51V39Z" fill="#E6E7E8"/>
<path d="M52 31H56V35H52V31Z" fill="#D8D7DA"/>
<path d="M52 25H56V31H52V25Z" fill="#FF5023"/>
<path d="M43.12 27.88C43.539 28.2995 43.8243 28.8339 43.9399 29.4155C44.0554 29.9971 43.996 30.5998 43.7691 31.1477C43.5423 31.6955 43.1582 32.1639 42.6653 32.4936C42.1725 32.8232 41.593 32.9995 41 33H34C33.2043 33 32.4413 32.6839 31.8787 32.1213C31.3161 31.5587 31 30.7956 31 30C31 29.2044 31.3161 28.4413 31.8787 27.8787C32.4413 27.3161 33.2043 27 34 27H41C41.3939 27 41.7839 27.0777 42.1477 27.2287C42.5115 27.3797 42.8419 27.601 43.12 27.88Z" fill="#FFB655"/>
<path d="M42.12 33.88C42.539 34.2995 42.8243 34.8339 42.9399 35.4155C43.0554 35.9971 42.996 36.5998 42.7691 37.1477C42.5423 37.6955 42.1582 38.1639 41.6653 38.4936C41.1725 38.8232 40.593 38.9995 40 39H34C33.2043 39 32.4413 38.6839 31.8787 38.1213C31.3161 37.5587 31 36.7956 31 36C31 35.2044 31.3161 34.4413 31.8787 33.8787C32.4413 33.3161 33.2043 33 34 33H40C40.3939 33 40.7839 33.0777 41.1477 33.2287C41.5115 33.3797 41.8419 33.601 42.12 33.88Z" fill="#FFB655"/>
<path d="M40.12 39.88C40.539 40.2995 40.8243 40.8339 40.9399 41.4155C41.0554 41.9971 40.996 42.5998 40.7691 43.1477C40.5423 43.6955 40.1582 44.1639 39.6653 44.4936C39.1725 44.8232 38.593 44.9995 38 45H33C32.2043 45 31.4413 44.6839 30.8787 44.1213C30.3161 43.5587 30 42.7956 30 42C30 41.2044 30.3161 40.4413 30.8787 39.8787C31.4413 39.3161 32.2043 39 33 39H38C38.3939 39 38.7839 39.0777 39.1477 39.2287C39.5115 39.3797 39.8419 39.601 40.12 39.88Z" fill="#FFB655"/>
<path d="M52 46H56V48H52V46Z" fill="#3D9AE2"/>
<path d="M52 30H56V32H52V30Z" fill="#E6E7E8"/>
<path d="M21 32.9999H19V30.9999H21C22.8559 30.9978 24.6351 30.2596 25.9474 28.9473C27.2597 27.6351 27.9979 25.8558 28 23.9999V20.9999C28 20.8244 28.0462 20.652 28.134 20.5C28.2218 20.3479 28.348 20.2217 28.5 20.1339L35.428 16.1339C35.6573 16.0036 35.8585 15.8291 36.0201 15.6207C36.1817 15.4122 36.3005 15.1739 36.3696 14.9193C36.4387 14.6648 36.4568 14.3991 36.4228 14.1375C36.3888 13.876 36.3034 13.6237 36.1715 13.3953C36.0396 13.1669 35.8639 12.9668 35.6544 12.8066C35.4448 12.6463 35.2057 12.5292 34.9507 12.4617C34.6957 12.3943 34.4299 12.378 34.1685 12.4137C33.9072 12.4495 33.6555 12.5365 33.428 12.6699L14.036 23.8699C13.884 23.9577 13.7115 24.0039 13.536 24.0039H2V21.9999H13.268L32.428 10.9379C32.8831 10.6711 33.3864 10.497 33.9091 10.4255C34.4318 10.3541 34.9634 10.3867 35.4734 10.5215C35.9834 10.6564 36.4617 10.8908 36.8807 11.2112C37.2998 11.5316 37.6513 11.9318 37.9151 12.3886C38.1788 12.8455 38.3496 13.35 38.4176 13.8731C38.4856 14.3962 38.4495 14.9276 38.3112 15.4367C38.173 15.9458 37.9355 16.4225 37.6123 16.8394C37.2891 17.2563 36.8866 17.6052 36.428 17.8659L30 21.5769V23.9999C29.9974 26.3861 29.0483 28.6737 27.361 30.361C25.6738 32.0482 23.3861 32.9973 21 32.9999Z" fill="#FFB655"/>
</svg>
