<svg width="64" height="64" viewBox="0 0 64 64" fill="none" xmlns="http://www.w3.org/2000/svg">
<g clip-path="url(#clip0_4307:22501)">
<path d="M31.067 59.0995C31.6839 59.5182 32.4803 59.7518 33.1128 59.3571C40.3172 54.8614 51.7412 45.7521 51.7412 45.7521C51.7007 45.7427 11.3679 26.7567 1.9502 22.3235C1.95032 34.5548 11.0006 45.4821 31.067 59.0995Z" fill="#FFCBCE"/>
<path d="M33.1125 58.0693C32.4799 58.464 31.6835 58.2304 31.0667 57.8117C11.0003 44.1943 2.37882 33.9202 1.95 22.3234C0.70503 21.7374 0 21.4055 0 21.4055C0 34.1137 9.06237 45.7526 30.9146 60.5819C31.5691 61.0261 32.4307 61.0261 33.0854 60.5819C40.8722 55.2977 47.0336 50.4188 51.7408 45.752C51.7408 45.752 40.3169 53.5736 33.1125 58.0693Z" fill="#FFB3B7"/>
<path d="M45.6796 3.08472C40.2404 3.08472 35.3558 5.45581 32.0004 9.21983C28.6449 5.45581 23.7603 3.08472 18.3211 3.08472C13.0567 3.08472 8.31173 5.30592 4.96995 8.8612C2.21576 12.668 1.28809 16.0887 1.28809 21.4056C1.28809 27.8598 6.63189 33.844 13.3952 35.4685C19.3228 36.8922 41.1539 41.3559 53.2719 44.188C60.6967 36.3588 64.0004 29.077 64.0004 21.4056C64.0004 11.2873 55.7978 3.08472 45.6796 3.08472Z" fill="#FF9A9F"/>
<path d="M1.93159 21.4056C1.93159 16.0887 3.41286 11.8495 4.96959 8.86133C1.88845 12.1394 0 16.5516 0 21.4056C0 28.6156 4.91461 34.7193 13.3948 36.7562C21.7304 38.7583 31.3946 40.0798 31.3946 40.0798L48.0599 44.8953C48.0599 44.8953 51.7394 45.7519 51.741 45.7522C52.2695 45.2283 52.7795 44.707 53.2717 44.188C41.1537 41.3559 19.3226 36.2483 13.3949 34.8246C6.63153 33.2001 1.93159 27.8598 1.93159 21.4056Z" fill="#FF8086"/>
<path d="M50.0608 41.2925C50.0608 39.4374 48.8697 37.8614 47.211 37.2849L47.9003 35.4796C48.183 34.388 48.218 33.3332 48.071 32.3538L47.5323 30.4568C47.2432 29.7791 46.8685 29.1647 46.4406 28.6325C47.3815 26.1642 45.9964 24.5572 43.5777 24.5986C41.9397 19.3016 37.6439 14.9711 31.8675 13.5525C27.1758 12.4002 22.46 13.4035 18.7615 15.9293C15.936 18.3758 14.1922 20.7669 13.4059 23.9685C12.4393 27.9039 13.2917 33.6947 14.9846 37.0495L42.4923 43.5786L49.5472 43.3174C49.8748 42.7156 50.0608 42.0258 50.0608 41.2925Z" fill="#FFCDBE"/>
<path d="M41.578 41.4436C41.5762 41.3932 41.5741 41.343 41.5741 41.2921C41.5741 38.9487 43.4738 37.0491 45.8172 37.0491C46.3055 37.0491 46.774 37.1326 47.2105 37.2843C47.5209 36.6758 47.7463 36.0722 47.8998 35.4793C47.2489 35.2452 46.5477 35.1175 45.8172 35.1175C42.5137 35.1175 39.8082 37.7253 39.6501 40.9903L32.4093 39.288C32.6408 38.9231 32.8179 38.5217 32.9314 38.0929C33.0713 37.5651 32.7845 36.9896 32.256 36.852C31.7335 36.7161 31.2032 37.0341 31.075 37.5564C30.9034 38.255 30.4296 38.8282 29.7599 39.1311C29.2053 39.3819 28.5731 39.3838 27.9958 39.1907C26.4114 38.6608 25.4698 36.9891 25.8752 35.3385C26.1819 34.0895 27.4477 33.3228 28.6966 33.6296C29.2196 33.7578 29.748 33.4338 29.8686 32.9066C29.9899 32.3762 29.6146 31.857 29.084 31.7364C26.8249 31.2233 24.5543 32.6189 23.9994 34.8777C23.7964 35.7042 23.8062 36.5336 23.9919 37.3092L15.7734 35.3771C15.4847 35.3092 15.2434 35.1125 15.1175 34.844C13.5889 31.5787 13.1231 27.7375 14.049 23.9681C14.8353 20.7666 16.5168 18.0206 18.7608 15.929C15.5565 18.1173 13.1158 21.4484 12.1174 25.5134C11.1508 29.4488 11.7011 33.4012 13.3941 36.7559L48.0591 44.8949C48.681 44.5071 49.1952 43.9626 49.5466 43.3168L41.578 41.4436Z" fill="#EBAE9D"/>
<path d="M47.1659 30.7102C46.6437 30.9962 44.8661 31.6331 43.2686 31.2741C42.7481 31.1568 42.2314 31.4841 42.1145 32.0046C41.9976 32.525 42.3247 33.0418 42.845 33.1587C43.3361 33.269 43.8591 33.3213 44.3858 33.3213C45.7625 33.3213 47.1607 32.9632 48.0703 32.3538C47.9693 31.6819 47.7826 31.0456 47.5313 30.457C47.3911 30.5657 47.2616 30.6578 47.1659 30.7102Z" fill="#EBAE9D"/>
<path d="M37.404 29.9185C36.9525 29.9185 36.4943 29.8241 36.0577 29.6244C35.5725 29.4026 35.3591 28.8296 35.5808 28.3445C35.8027 27.8594 36.3756 27.6459 36.8607 27.8678C37.5218 28.1697 38.3055 27.8782 38.6075 27.2171C38.8294 26.732 39.402 26.5184 39.8875 26.7404C40.3726 26.9622 40.586 27.5352 40.3641 28.0202C39.8189 29.2132 38.6373 29.9185 37.404 29.9185Z" fill="#C38778"/>
</g>
<defs>
<clipPath id="clip0_4307:22501">
<rect width="64" height="64" fill="white"/>
</clipPath>
</defs>
</svg>
