<svg width="42" height="64" viewBox="0 0 42 64" fill="none" xmlns="http://www.w3.org/2000/svg">
<path d="M7.96886 56.8055C8.20844 56.1079 8.49982 55.4292 8.84058 54.7751C8.80748 54.7641 8.78541 54.742 8.7523 54.731C3.76472 51.9062 0.0350632 46.8193 0.0350632 38.6206C-0.213949 32.7026 2.74687 27.1099 7.78127 23.9889L14.3799 23.1724L31.4833 32.9158C31.3047 36.0101 31.8723 39.102 33.1385 41.931C36.7148 49.0835 38.8422 59.1326 39.5209 62.6891C39.5828 63.0125 39.497 63.3467 39.2869 63.6004C39.0768 63.854 38.7644 64.0006 38.4351 64H7.81548C7.50873 64.0007 7.2155 63.8738 7.00616 63.6496C6.79682 63.4254 6.69025 63.1241 6.71203 62.8182C6.86846 60.7679 7.29095 58.7467 7.96886 56.8055Z" fill="#2FA8CC"/>
<path d="M23.6818 58.1738C23.7153 58.4637 23.6315 58.755 23.4492 58.983C23.2668 59.2109 23.001 59.3565 22.7108 59.3876C21.6963 59.5065 20.6757 59.5655 19.6543 59.5641C15.593 59.6055 11.5827 58.6588 7.96875 56.8055C8.20833 56.1079 8.49972 55.4293 8.84047 54.7751C13.0335 56.9306 17.7775 57.7764 22.457 57.2027C22.7483 57.1686 23.0412 57.2518 23.271 57.434C23.5008 57.6162 23.6486 57.8824 23.6818 58.1738Z" fill="#2980BA"/>
<path d="M39.7598 34.2069C39.7598 34.2069 25.4149 33.1034 13.277 26.4828C11.7661 25.1028 9.80552 24.3186 7.75977 24.2759C7.83905 22.8533 8.68404 21.5858 9.96666 20.9655C11.1629 20.4085 12.5123 20.2724 13.7956 20.5793C7.62735 18.5159 7.08666 10.869 12.1736 8.82759C12.8925 8.54189 13.5802 8.18324 14.226 7.75724C16.742 6.00122 18.8466 3.71967 20.3942 1.07034C20.7966 0.406619 21.516 0.000880254 22.2922 0H35.2908C38.6342 0 40.9294 3.71862 40.8632 6.62069C40.8632 12.1379 41.9667 25.3793 39.7598 34.2069Z" fill="#FDD7AD"/>
<path d="M35.3447 26.4144C35.1059 26.4151 34.8733 26.3376 34.6827 26.1937C32.0675 24.2329 28.5034 23.9669 25.3585 23.7319C23.7684 23.6845 22.189 23.455 20.6512 23.0477C20.2767 22.923 19.9972 22.6079 19.918 22.2212C19.8388 21.8344 19.9719 21.4348 20.2672 21.1729C20.5626 20.9109 20.9752 20.8264 21.3497 20.9512C22.716 21.2926 24.1152 21.4857 25.5229 21.5272C28.7991 21.7722 32.8752 22.0789 36.0057 24.426C36.3857 24.7109 36.5407 25.2071 36.3905 25.6577C36.2403 26.1082 35.8186 26.4122 35.3436 26.4122L35.3447 26.4144Z" fill="#F9C795"/>
<path d="M13.2765 37.694C14.0457 36.2667 15.5179 35.3581 17.1386 35.3105C18.2068 35.33 19.2214 35.7825 19.9495 36.5644C20.6777 37.3463 21.0571 38.3904 21.0006 39.4573C21.0006 42.5668 17.8569 44.6259 13.2765 48.5519C8.6961 44.6259 5.55238 42.5668 5.55238 39.4573C5.49594 38.3904 5.8753 37.3463 6.60348 36.5644C7.33166 35.7825 8.34619 35.33 9.41445 35.3105C11.0351 35.3581 12.5073 36.2667 13.2765 37.694Z" fill="#FF5364"/>
<path d="M32.0905 24.8386C28.1181 23.5586 23.5608 24.0221 21.0008 23.1724C18.507 22.3338 16.0684 21.0207 13.7953 20.5793C7.62702 18.5159 7.08633 10.869 12.1732 8.82759C12.8922 8.54189 13.5799 8.18324 14.2256 7.75724C16.7909 8.471 19.4416 8.83111 22.1043 8.82759C28.725 8.82759 28.725 0 28.725 0H33.1388C30.2698 11.4869 31.1305 20.171 32.0905 24.8386Z" fill="#2FA8CC"/>
<path d="M9.41393 40.8276C10.6328 40.8276 11.6208 39.8396 11.6208 38.6207C11.6208 37.4019 10.6328 36.4138 9.41393 36.4138C8.19509 36.4138 7.20703 37.4019 7.20703 38.6207C7.20703 39.8396 8.19509 40.8276 9.41393 40.8276Z" fill="#FB7B76"/>
</svg>
