<svg width="64" height="64" viewBox="0 0 64 64" fill="none" xmlns="http://www.w3.org/2000/svg">
<g clip-path="url(#clip0_4307:22511)">
<path d="M53.3735 63.9982H10.6386C10.1154 63.9982 9.61601 63.7795 9.26103 63.3951C8.90618 63.0107 8.72794 62.4955 8.76969 61.9739C8.87806 60.618 8.93293 59.2342 8.93293 57.8609C8.93293 51.0666 7.56789 44.4034 5.18791 39.5796C4.75856 38.7094 5.06417 37.6553 5.89237 37.1497L29.849 22.5244C30.4191 22.1764 31.1312 22.1579 31.7185 22.4759L58.1845 36.8037C59.0785 37.2878 59.424 38.3963 58.9631 39.3026C56.4948 44.1549 55.0793 50.9192 55.0793 57.8609C55.0793 59.2342 55.1342 60.618 55.2425 61.9739C55.2842 62.4955 55.106 63.0107 54.7512 63.3951C54.3961 63.7795 53.8967 63.9982 53.3735 63.9982Z" fill="#FDD1A3"/>
<path d="M58.1837 36.8035L31.9922 22.6243V63.9979H53.3727C53.8959 63.9979 54.3953 63.7793 54.7503 63.3948C55.1051 63.0105 55.2834 62.4953 55.2416 61.9737C55.1332 60.6178 55.0784 59.234 55.0784 57.8607C55.0784 50.919 56.4939 44.1547 58.9621 39.3023C59.4232 38.396 59.0777 37.2876 58.1837 36.8035Z" fill="#FFBB85"/>
<path d="M48.2051 43.7967C41.8977 43.7968 35.5701 40.0903 32.1862 33.7273C32.1229 33.6084 32.0608 33.4887 32.0001 33.3687C31.9393 33.4887 31.8773 33.6082 31.8139 33.7272C27.0905 42.6085 16.6313 46.3146 8.49852 41.9892C4.52764 39.8772 1.70594 36.2002 0.553138 31.6355C-0.582542 27.1384 0.0430445 22.3092 2.3149 18.0373C6.60326 9.97358 7.76456 7.05389 7.76456 1.87684C7.76456 0.841401 8.60389 0.00195312 9.63932 0.00195312H54.3605C55.396 0.00195312 56.2353 0.841401 56.2353 1.87684C56.2353 7.05389 57.3966 9.97358 61.685 18.0373C63.9568 22.3092 64.5825 27.1384 63.4467 31.6355C62.2939 36.2002 59.4722 39.8772 55.5014 41.9892C53.1952 43.2159 50.7015 43.7967 48.2051 43.7967Z" fill="#FFE4C1"/>
<path d="M16.6371 32.7615C18.6521 32.2789 19.8945 30.2543 19.412 28.2393C18.9294 26.2242 16.9048 24.9819 14.8897 25.4644C12.8747 25.947 11.6324 27.9716 12.1149 29.9867C12.5974 32.0017 14.6221 33.244 16.6371 32.7615Z" fill="#FFBB85"/>
<path d="M15.7487 34.7283C12.6472 34.7283 10.124 32.2051 10.124 29.1037C10.124 26.0022 12.6472 23.479 15.7487 23.479C18.8501 23.479 21.3733 26.0022 21.3733 29.1037C21.3733 32.2051 18.8501 34.7283 15.7487 34.7283ZM15.7487 27.2288C14.7149 27.2288 13.8738 28.0698 13.8738 29.1037C13.8738 30.1375 14.7149 30.9785 15.7487 30.9785C16.7825 30.9785 17.6236 30.1375 17.6236 29.1037C17.6236 28.0698 16.7825 27.2288 15.7487 27.2288Z" fill="#FDD1A3"/>
<path d="M61.6849 18.0373C57.3965 9.97358 56.2352 7.05389 56.2352 1.87684C56.2352 0.841401 55.3959 0.00195312 54.3604 0.00195312H31.9922V33.3836C31.9947 33.3786 31.9973 33.3737 31.9999 33.3687C32.0607 33.4887 32.1228 33.6084 32.1861 33.7273C35.57 40.0902 41.8976 43.7968 48.2049 43.7967C50.7014 43.7967 53.1951 43.2159 55.5014 41.9893C59.4721 39.8773 62.2939 36.2003 63.4467 31.6356C64.5824 27.1385 63.9568 22.3092 61.6849 18.0373Z" fill="#FDD1A3"/>
<path d="M48.2468 32.8533C50.3178 32.8533 51.9966 31.1745 51.9966 29.1035C51.9966 27.0326 50.3178 25.3538 48.2468 25.3538C46.1759 25.3538 44.4971 27.0326 44.4971 29.1035C44.4971 31.1745 46.1759 32.8533 48.2468 32.8533Z" fill="#F5A86C"/>
<path d="M48.2467 34.7283C45.1453 34.7283 42.6221 32.2051 42.6221 29.1037C42.6221 26.0022 45.1453 23.479 48.2467 23.479C51.3481 23.479 53.8714 26.0022 53.8714 29.1037C53.8714 32.2051 51.3481 34.7283 48.2467 34.7283ZM48.2467 27.2288C47.2129 27.2288 46.3718 28.0698 46.3718 29.1037C46.3718 30.1375 47.2129 30.9785 48.2467 30.9785C49.2805 30.9785 50.1216 30.1375 50.1216 29.1037C50.1216 28.0698 49.2805 27.2288 48.2467 27.2288Z" fill="#FFBB85"/>
<path d="M38.2524 27.4397C38.0446 27.4397 37.8334 27.4049 37.6265 27.3317C36.6504 26.9861 36.1394 25.9147 36.485 24.9386C37.2978 22.6431 38.7517 20.65 40.6895 19.175C41.5134 18.5477 42.6896 18.7071 43.3169 19.5312C43.9442 20.355 43.7847 21.5314 42.9607 22.1586C41.6052 23.1905 40.5882 24.5846 40.0196 26.1903C39.7474 26.9592 39.0243 27.4397 38.2524 27.4397Z" fill="#FFBB85"/>
<path d="M52.3616 21.2078C52.119 21.2078 51.8724 21.1604 51.6348 21.0603C50.9117 20.7557 50.1509 20.55 49.3733 20.4487C48.3465 20.315 47.6224 19.3742 47.7561 18.3474C47.8898 17.3206 48.8308 16.5967 49.8574 16.7302C50.9691 16.875 52.0567 17.1691 53.0902 17.6044C54.0445 18.0064 54.4922 19.1058 54.0904 20.06C53.7885 20.7768 53.0932 21.2078 52.3616 21.2078Z" fill="#FFBB85"/>
</g>
<defs>
<clipPath id="clip0_4307:22511">
<rect width="64" height="64" fill="white"/>
</clipPath>
</defs>
</svg>
